<svg xmlns="http://www.w3.org/2000/svg" version="1.1" xmlns:xlink="http://www.w3.org/1999/xlink" xmlns:svgjs="http://svgjs.dev/svgjs" width="1440" height="560" preserveAspectRatio="none" viewBox="0 0 1440 560"><g mask="url(&quot;#SvgjsMask1026&quot;)" fill="none"><rect width="1440" height="560" x="0" y="0" fill="rgba(31, 99, 141, 1)"></rect><path d="M0,421.905C84.248,429.023,175.113,428.828,245.209,381.553C314.841,334.591,336.299,245.889,373,170.344C410.672,92.802,475.127,18.783,462.91,-66.556C450.692,-151.902,365.753,-202.856,310.144,-268.741C253.681,-335.639,218.496,-433.483,133.976,-456.28C49.522,-479.059,-30.359,-413.122,-112.372,-382.704C-188.094,-354.62,-279.73,-349.03,-328.586,-284.721C-376.966,-221.039,-357.66,-132.019,-363.418,-52.252C-368.737,21.434,-386.287,95.45,-361.038,164.88C-334.685,237.346,-282.769,297.533,-219.952,342.253C-155.115,388.411,-79.306,415.205,0,421.905" fill="#194f71"></path><path d="M1440 1125.71C1542.728 1107.328 1606.654 1010.019 1684.649 940.681 1750.215 882.393 1812.09 825.222 1860.387 751.984 1916.413 667.025 2000.0430000000001 582.272 1987.612 481.265 1975.176 380.21799999999996 1870.906 320.93399999999997 1798.527 249.33499999999998 1731.7649999999999 183.293 1665.076 121.387 1581.173 79.209 1482.525 29.619000000000028 1379.015-38.301000000000045 1270.9-15.902000000000044 1161.437 6.775999999999954 1097.797 115.85399999999998 1019.443 195.58499999999998 935.5260000000001 280.977 808.524 348.337 795.948 467.399 783.361 586.563 897.034 676.922 957.685 780.266 1011.475 871.919 1045.376 977.732 1131.7730000000001 1039.6109999999999 1220.292 1103.01 1332.821 1144.888 1440 1125.71" fill="#2577a9"></path></g><defs><mask id="SvgjsMask1026"><rect width="1440" height="560" fill="#ffffff"></rect></mask></defs></svg>