<svg xmlns="http://www.w3.org/2000/svg" version="1.1" xmlns:xlink="http://www.w3.org/1999/xlink" xmlns:svgjs="http://svgjs.dev/svgjs" width="1440" height="560" preserveAspectRatio="none" viewBox="0 0 1440 560"><g mask="url(&quot;#SvgjsMask1528&quot;)" fill="none"><rect width="1440" height="560" x="0" y="0" fill="url(&quot;#SvgjsLinearGradient1529&quot;)"></rect><path d="M1440 0L1017.4 0L1440 249.99z" fill="rgba(255, 255, 255, .1)"></path><path d="M1017.4 0L1440 249.99L1440 343.09000000000003L555.69 0z" fill="rgba(255, 255, 255, .075)"></path><path d="M555.69 0L1440 343.09000000000003L1440 403.08000000000004L214.99000000000007 0z" fill="rgba(255, 255, 255, .05)"></path><path d="M214.99 0L1440 403.08000000000004L1440 489.73L142.09 0z" fill="rgba(255, 255, 255, .025)"></path><path d="M0 560L715.18 560L0 508.69z" fill="rgba(0, 0, 0, .1)"></path><path d="M0 508.69L715.18 560L751.9399999999999 560L0 423.01z" fill="rgba(0, 0, 0, .075)"></path><path d="M0 423.01L751.9399999999999 560L1043.33 560L0 199.31z" fill="rgba(0, 0, 0, .05)"></path><path d="M0 199.31L1043.33 560L1047.04 560L0 148.67000000000002z" fill="rgba(0, 0, 0, .025)"></path></g><defs><mask id="SvgjsMask1528"><rect width="1440" height="560" fill="#ffffff"></rect></mask><linearGradient x1="15.28%" y1="-39.29%" x2="84.72%" y2="139.29%" gradientUnits="userSpaceOnUse" id="SvgjsLinearGradient1529"><stop stop-color="#0e2a47" offset="0"></stop><stop stop-color="rgba(137, 174, 223, 1)" offset="1"></stop></linearGradient></defs></svg>